<svg id="Camada_1" data-name="Camada 1" xmlns="http://www.w3.org/2000/svg" viewBox="0 0 53.81 71.86"><title>Ícones</title><path id="ic_directions_run_24px" data-name="ic directions run 24px" d="M35.43,13.37a6.69,6.69,0,1,0-6.69-6.69A6.68,6.68,0,0,0,35.43,13.37Zm-12,46.45,3.34-14.7,7,6.68V71.86h6.68V46.79l-7-6.68,2-10a24.42,24.42,0,0,0,18.38,8.35V31.75a16.44,16.44,0,0,1-14.37-8L36.1,18.38A6.93,6.93,0,0,0,30.41,15c-1,0-1.67.33-2.67.33L10.36,22.73v15.7H17V27.07l6-2.34L17.71,51.8,1.34,48.46,0,55.15Z"/></svg>