<svg id="Camada_1" data-name="Camada 1" xmlns="http://www.w3.org/2000/svg" viewBox="0 0 66.74 68.61"><title>Ícones</title><path id="ic_settings_24px" data-name="ic settings 24px" d="M58.86,37.67a27.13,27.13,0,0,0,.24-3.37,27.11,27.11,0,0,0-.24-3.36l7.24-5.66a1.71,1.71,0,0,0,.41-2.19L59.65,11.22a1.72,1.72,0,0,0-2.09-.76L49,13.89a25.64,25.64,0,0,0-5.8-3.36l-1.3-9.09A1.68,1.68,0,0,0,40.24,0H26.51a1.68,1.68,0,0,0-1.68,1.44l-1.3,9.09a26.41,26.41,0,0,0-5.8,3.36L9.19,10.46a1.67,1.67,0,0,0-2.09.76L.24,23.09a1.68,1.68,0,0,0,.41,2.19l7.24,5.66a27.11,27.11,0,0,0-.24,3.36,27.13,27.13,0,0,0,.24,3.37L.65,43.33a1.7,1.7,0,0,0-.41,2.19L7.1,57.39a1.71,1.71,0,0,0,2.09.75l8.54-3.43a25.31,25.31,0,0,0,5.8,3.37l1.3,9.09a1.68,1.68,0,0,0,1.68,1.44H40.24a1.68,1.68,0,0,0,1.68-1.44l1.3-9.09A26.06,26.06,0,0,0,49,54.71l8.54,3.43a1.66,1.66,0,0,0,2.09-.75l6.86-11.87a1.71,1.71,0,0,0-.41-2.19ZM33.37,46.31a12,12,0,1,1,12-12A12,12,0,0,1,33.37,46.31Z"/></svg>