<svg id="Camada_1" data-name="Camada 1" xmlns="http://www.w3.org/2000/svg" viewBox="0 0 66.84 60.16"><title>Ícones</title><path id="ic_domain_24px" data-name="ic domain 24px" d="M33.42,13.37V0H0V60.16H66.84V13.37ZM13.37,53.47H6.68V46.79h6.69Zm0-13.36H6.68V33.42h6.69Zm0-13.37H6.68V20.05h6.69Zm0-13.37H6.68V6.68h6.69Zm13.37,40.1H20.05V46.79h6.69Zm0-13.36H20.05V33.42h6.69Zm0-13.37H20.05V20.05h6.69Zm0-13.37H20.05V6.68h6.69Zm33.42,40.1H33.42V46.79h6.69V40.11H33.42V33.42h6.69V26.74H33.42V20.05H60.16ZM53.47,26.74H46.79v6.68h6.68Zm0,13.37H46.79v6.68h6.68Z"/></svg>