<svg id="Camada_1" data-name="Camada 1" xmlns="http://www.w3.org/2000/svg" viewBox="0 0 49.36 54.85"><title>Ícones</title><path id="ic_assignment_ind_24px" data-name="ic assignment ind 24px" d="M43.87,5.49H32.41A8.19,8.19,0,0,0,17,5.49H5.48A5.5,5.5,0,0,0,0,11V49.36a5.5,5.5,0,0,0,5.48,5.49H43.87a5.51,5.51,0,0,0,5.49-5.49V11A5.5,5.5,0,0,0,43.87,5.49Zm-19.19,0a2.74,2.74,0,1,1-2.74,2.74A2.74,2.74,0,0,1,24.68,5.49Zm0,11a8.23,8.23,0,1,1-8.23,8.22A8.23,8.23,0,0,1,24.68,16.46Zm16.45,32.9H8.23V45.52c0-5.48,11-8.5,16.45-8.5s16.45,3,16.45,8.5Z"/></svg>