<svg id="Camada_1" data-name="Camada 1" xmlns="http://www.w3.org/2000/svg" viewBox="0 0 150.18 110.14"><title>Ícones</title><path d="M143.08,0H7.1A7.11,7.11,0,0,0,0,7.1V24.19a7.11,7.11,0,0,0,7.1,7.1H19.77a6.87,6.87,0,0,0-.32,2.09V50.47a7.11,7.11,0,0,0,7.1,7.1H34a7.26,7.26,0,0,0-.31,2.1V76.75a7.11,7.11,0,0,0,7.1,7.11h6.09a6.89,6.89,0,0,0-.32,2.1V103a7.11,7.11,0,0,0,7.1,7.1H96.52a7.11,7.11,0,0,0,7.1-7.1V86a6.89,6.89,0,0,0-.32-2.1h6.09a7.11,7.11,0,0,0,7.1-7.11V59.67a7.26,7.26,0,0,0-.31-2.1h7.45a7.11,7.11,0,0,0,7.1-7.1V33.38a6.87,6.87,0,0,0-.32-2.09h12.67a7.11,7.11,0,0,0,7.1-7.1V7.1A7.11,7.11,0,0,0,143.08,0ZM98.62,86V103a2.1,2.1,0,0,1-2.1,2.1H53.66a2.1,2.1,0,0,1-2.1-2.1V86a2.1,2.1,0,0,1,2.1-2.1H96.52A2.1,2.1,0,0,1,98.62,86Zm12.87-26.29V76.75a2.11,2.11,0,0,1-2.1,2.11H40.79a2.11,2.11,0,0,1-2.1-2.11V59.67a2.1,2.1,0,0,1,2.1-2.1h68.6A2.1,2.1,0,0,1,111.49,59.67Zm14.24-26.29V50.47a2.1,2.1,0,0,1-2.1,2.1H26.55a2.1,2.1,0,0,1-2.1-2.1V33.38a2.1,2.1,0,0,1,2.1-2.09h97.08A2.1,2.1,0,0,1,125.73,33.38Zm19.45-9.19a2.11,2.11,0,0,1-2.1,2.1H7.1A2.11,2.11,0,0,1,5,24.19V7.1A2.1,2.1,0,0,1,7.1,5h136a2.1,2.1,0,0,1,2.1,2.1Z"/></svg>