<svg id="Camada_1" data-name="Camada 1" xmlns="http://www.w3.org/2000/svg" viewBox="0 0 149 143.96"><title>Ícones</title><path d="M145.08,26.23c-.21-.15-.44-.26-.66-.39l-.1-.06a9,9,0,0,0-1.86-.73l-24.19-9a2.45,2.45,0,0,0-1.55-.57L75.37.16a2.48,2.48,0,0,0-1.74,0L6.52,25.06a8.92,8.92,0,0,0-1.83.72l-.12.07c-.22.12-.44.24-.65.38A8.83,8.83,0,0,0,0,33.58v74a8.81,8.81,0,0,0,5.49,8.19h0l68.06,28a.75.75,0,0,0,.16,0l.15.05a2.32,2.32,0,0,0,1.28,0l.15-.05a.75.75,0,0,0,.16,0l68.06-28A8.81,8.81,0,0,0,149,107.6v-74A8.83,8.83,0,0,0,145.08,26.23ZM74.5,51,55.71,43.27l60.76-22.53,16.63,6.17Zm-41-11.47,13.67,5.62-.38,35.27L33.46,74.17Zm3.43-4L96.62,13.37l12.66,4.7L48.89,40.47ZM74.5,5.17l14.94,5.54-59.35,22h0L15.9,26.91Zm-67.11,106A3.85,3.85,0,0,1,5,107.6v-74a3.79,3.79,0,0,1,1.71-3.2c.1-.07.2-.12.3-.18l1.07-.39a3.57,3.57,0,0,1,2.23.21l18.15,7.46V75.76A2.49,2.49,0,0,0,29.9,78L48.15,86.6a2.45,2.45,0,0,0,1.06.24,2.56,2.56,0,0,0,1.33-.38,2.5,2.5,0,0,0,1.17-2.09l.4-37.17L72,55.38v82.35L7.39,111.17ZM144,107.6a3.85,3.85,0,0,1-2.39,3.57L77,137.73V55.38L138.69,30a3.72,3.72,0,0,1,2.2-.22l1.12.41.28.17a3.79,3.79,0,0,1,1.71,3.2Z"/><path d="M128.71,70.56a4.69,4.69,0,0,0-4.4-.45l-19.83,8.15a4.7,4.7,0,0,0-2.91,4.35v24.76a4.7,4.7,0,0,0,4.7,4.7,4.78,4.78,0,0,0,1.78-.35l19.83-8.15h0a4.68,4.68,0,0,0,2.91-4.35V74.46A4.69,4.69,0,0,0,128.71,70.56ZM125.79,99l-19.22,7.9V82.81l19.22-7.9Z"/></svg>