<svg id="Camada_1" data-name="Camada 1" xmlns="http://www.w3.org/2000/svg" viewBox="0 0 145 148"><title>Ícones</title><path d="M137.9,46.5H75V7.1A7.11,7.11,0,0,0,67.9,0H7.1A7.11,7.11,0,0,0,0,7.1V140.9A7.11,7.11,0,0,0,7.1,148H137.9a7.11,7.11,0,0,0,7.1-7.1V53.6A7.11,7.11,0,0,0,137.9,46.5Zm-113.4,96V98.66a.67.67,0,0,1,.66-.66H49.84a.67.67,0,0,1,.66.66V142.5ZM70,143H55.5V98.66A5.67,5.67,0,0,0,49.84,93H25.16a5.67,5.67,0,0,0-5.66,5.66V143H7.1A2.1,2.1,0,0,1,5,140.9V7.1A2.1,2.1,0,0,1,7.1,5H67.9A2.1,2.1,0,0,1,70,7.1V143Zm24.5-.5V98.66a.67.67,0,0,1,.66-.66h24.68a.67.67,0,0,1,.66.66V142.5Zm45.5-1.6a2.1,2.1,0,0,1-2.1,2.1H125.5V98.66A5.67,5.67,0,0,0,119.84,93H95.16a5.67,5.67,0,0,0-5.66,5.66V143H75V51.5h62.9a2.1,2.1,0,0,1,2.1,2.1Z"/><circle cx="20" cy="29.5" r="5"/><circle cx="37.5" cy="30" r="5"/><circle cx="55" cy="30.5" r="5"/><circle cx="20" cy="49.5" r="5"/><circle cx="37.5" cy="50" r="5"/><circle cx="55" cy="50.5" r="5"/><circle cx="20" cy="69.5" r="5"/><circle cx="37.5" cy="70" r="5"/><circle cx="55" cy="70.5" r="5"/></svg>