<svg id="Camada_1" data-name="Camada 1" xmlns="http://www.w3.org/2000/svg" viewBox="0 0 109.24 148"><title>Ícones</title><path d="M109.12,126.93a.88.88,0,0,0,0-.15,2.6,2.6,0,0,0,.07-.56V7.1a7.11,7.11,0,0,0-7.1-7.1H7.1A7.1,7.1,0,0,0,0,7.1V140.9A7.11,7.11,0,0,0,7.1,148H87.52a2.09,2.09,0,0,0,.43,0l.18,0c.09,0,.19-.05.28-.09l.16-.08c.09,0,.19-.09.28-.15a2.72,2.72,0,0,0,.38-.31L108.51,128a2.74,2.74,0,0,0,.36-.48l.09-.16A2.61,2.61,0,0,0,109.12,126.93ZM5,140.9V7.1A2.1,2.1,0,0,1,7.1,5h95a2.1,2.1,0,0,1,2.1,2.1V123.16l-16.72-3.4a2.5,2.5,0,0,0-3,2.49L84.91,143H7.1A2.1,2.1,0,0,1,5,140.9Zm84.85-1.32-.27-14.3,12.1,2.46Z"/><path d="M50.51,78.88H17.63A5.13,5.13,0,0,0,12.51,84v32.88A5.13,5.13,0,0,0,17.63,122H50.51a5.13,5.13,0,0,0,5.12-5.12V84A5.13,5.13,0,0,0,50.51,78.88Zm1.12,38A1.12,1.12,0,0,1,50.51,118H17.63a1.12,1.12,0,0,1-1.12-1.12V84a1.12,1.12,0,0,1,1.12-1.12H50.51A1.12,1.12,0,0,1,51.63,84Z"/><path d="M94.73,78.88H77a2,2,0,0,0,0,4h17.7a2,2,0,1,0,0-4Z"/><path d="M61,83.38h6.93a2.5,2.5,0,0,0,0-5H61a2.5,2.5,0,1,0,0,5Z"/><path d="M96.73,91.08a2,2,0,0,0-2-2H61a2,2,0,0,0,0,4H94.73A2,2,0,0,0,96.73,91.08Z"/><path d="M96.73,101.28a2,2,0,0,0-2-2H82.43a2,2,0,0,0,0,4h12.3A2,2,0,0,0,96.73,101.28Z"/><path d="M61,99.28a2,2,0,1,0,0,4H74.87a2,2,0,0,0,0-4Z"/><path d="M75.77,109.48H61a2,2,0,0,0,0,4H75.77a2,2,0,0,0,0-4Z"/><path d="M92.54,62.8a5.13,5.13,0,0,0,5.12-5.12V24.8a5.13,5.13,0,0,0-5.12-5.12H59.66a5.13,5.13,0,0,0-5.12,5.12V57.68a5.13,5.13,0,0,0,5.12,5.12Zm-34-5.12V24.8a1.12,1.12,0,0,1,1.12-1.12H92.54a1.12,1.12,0,0,1,1.12,1.12V57.68a1.12,1.12,0,0,1-1.12,1.12H59.66A1.12,1.12,0,0,1,58.54,57.68Z"/><path d="M13.58,28.18h6.93a2.5,2.5,0,0,0,0-5H13.58a2.5,2.5,0,1,0,0,5Z"/><path d="M29.6,27.68H47.3a2,2,0,0,0,0-4H29.6a2,2,0,0,0,0,4Z"/><path d="M47.3,33.88H13.58a2,2,0,1,0,0,4H47.3a2,2,0,0,0,0-4Z"/><path d="M47.3,44.08H35a2,2,0,0,0,0,4H47.3a2,2,0,0,0,0-4Z"/><path d="M13.58,44.08a2,2,0,1,0,0,4H27.44a2,2,0,0,0,0-4Z"/><path d="M47.3,58.28a2,2,0,0,0,0-4H13.58a2,2,0,1,0,0,4Z"/></svg>