<svg id="Camada_1" data-name="Camada 1" xmlns="http://www.w3.org/2000/svg" viewBox="0 0 109.24 148"><title>Ícones</title><path d="M109.12,126.93a.88.88,0,0,0,0-.15,2.6,2.6,0,0,0,.07-.56V7.1a7.1,7.1,0,0,0-7.1-7.1H7.1A7.11,7.11,0,0,0,0,7.1V140.9A7.11,7.11,0,0,0,7.1,148H87.52a2.09,2.09,0,0,0,.43,0l.18,0c.09,0,.19-.05.28-.09l.16-.08c.09,0,.19-.09.28-.15a2.72,2.72,0,0,0,.38-.31L108.51,128a2.74,2.74,0,0,0,.36-.48l.09-.16A1.92,1.92,0,0,0,109.12,126.93ZM5,140.9V7.1A2.1,2.1,0,0,1,7.1,5h95a2.1,2.1,0,0,1,2.1,2.1V123.16l-16.72-3.4a2.5,2.5,0,0,0-3,2.49L84.91,143H7.1A2.1,2.1,0,0,1,5,140.9Zm84.85-1.32-.27-14.3,12.1,2.46Z"/><path d="M51.13,63.34a15.27,15.27,0,0,0,2.31-8.72A15.54,15.54,0,0,0,52,47.48a12.36,12.36,0,0,0-4-4.6,16.42,16.42,0,0,0-5.85-2.47A33.52,33.52,0,0,0,35,39.67H17.67v48H28.5V70.37h6l9.2,17.29H55.8L44.91,68.46A14.2,14.2,0,0,0,51.13,63.34ZM40.6,60q-2.25,1.81-6.52,1.81H28.5V48.29h5.58a12.46,12.46,0,0,1,6.52,1.4q2.25,1.39,2.25,4.93A6.42,6.42,0,0,1,40.6,60Z"/><path d="M88.7,83.06A14.61,14.61,0,0,0,91.57,74a11.3,11.3,0,0,0-1.44-5.93A14.71,14.71,0,0,0,86.52,64a24.54,24.54,0,0,0-4.67-2.88q-2.5-1.17-4.68-2.28a18.67,18.67,0,0,1-3.6-2.32,3.76,3.76,0,0,1-1.43-3,4.31,4.31,0,0,1,1.39-3.6,6.41,6.41,0,0,1,4-1.11,9.26,9.26,0,0,1,4.19.92,17.12,17.12,0,0,1,3.83,2.76l5.45-6.18a22.93,22.93,0,0,0-4.78-3.9,16.35,16.35,0,0,0-6.18-2.14V32.83H73v7.58A13.77,13.77,0,0,0,64.74,45a13.59,13.59,0,0,0-3,9,10.34,10.34,0,0,0,1.43,5.59,15.52,15.52,0,0,0,3.61,4,26,26,0,0,0,4.67,2.9q2.5,1.22,4.67,2.43a19.24,19.24,0,0,1,3.62,2.54,4.26,4.26,0,0,1,1.43,3.24,4.84,4.84,0,0,1-1.43,3.83,6.83,6.83,0,0,1-4.53,1.25A13.29,13.29,0,0,1,70,78.72a25,25,0,0,1-5.34-3.2L60,82.81a20.25,20.25,0,0,0,6.15,3.79A26.21,26.21,0,0,0,73,88.4v7.36h7.14V88.1A14.08,14.08,0,0,0,88.7,83.06Z"/></svg>