<?xml version="1.0" encoding="utf-8"?>
<!-- Generator: Adobe Illustrator 23.0.2, SVG Export Plug-In . SVG Version: 6.00 Build 0)  -->
<svg version="1.1" id="Camada_1" xmlns="http://www.w3.org/2000/svg" xmlns:xlink="http://www.w3.org/1999/xlink" x="0px" y="0px"
	 viewBox="0 0 149.8 127.3" style="enable-background:new 0 0 149.8 127.3;" xml:space="preserve">
<style type="text/css">
	.st0{fill:#FF4A4A;}
	.st1{fill:none;stroke:#FF4A4A;stroke-width:5;stroke-miterlimit:10;}
	.st2{fill:none;stroke:#FF4A4A;stroke-width:5;stroke-linecap:round;stroke-linejoin:round;stroke-miterlimit:10;}
	.st3{fill:#FF4949;stroke:#FF4A4A;stroke-width:5;stroke-miterlimit:10;}
	.st4{fill:#FFFFFF;stroke:#FF4A4A;stroke-width:5;stroke-miterlimit:10;}
	.st5{fill:#FF4949;}
	.st6{fill:none;stroke:#FF4A4A;stroke-width:4;stroke-linecap:round;stroke-linejoin:round;stroke-miterlimit:10;}
	.st7{fill:none;}
	.st8{fill:#FFFFFF;}
	.st9{fill:#FFFFFF;stroke:#FF4A4A;stroke-width:4;stroke-linecap:round;stroke-linejoin:round;stroke-miterlimit:10;}
	.st10{fill:none;stroke:#FFFFFF;stroke-width:9;stroke-linecap:round;stroke-linejoin:round;stroke-miterlimit:10;}
</style>
<g>
	<path d="M145.5,22H71.3c-1.1,0-2-0.9-2-2V4.2c0-2.3-1.9-4.2-4.2-4.2H19.9c-2.3,0-4.2,1.9-4.2,4.2v5h40.2c2.3,0,4.2,1.9,4.2,4.2
		v15.8c0,1.1,0.9,2,2,2h74.2c2.3,0,4.2,1.9,4.2,4.2v76.2h5c2.3,0,4.2-1.9,4.2-4.2V26.2C149.8,23.9,147.9,22,145.5,22z"/>
	<g>
		<path d="M75.8,54.9c-5.3,0-10.6,2-14.6,6c-3.9,3.9-6.1,9.1-6.1,14.6c0,5.5,2.1,10.7,6.1,14.6c8.1,8.1,21.2,8.1,29.2,0
			c3.9-3.9,6.1-9.1,6.1-14.6c0-5.5-2.1-10.7-6.1-14.6C86.4,56.9,81.1,54.9,75.8,54.9z"/>
		<path d="M129.8,37.7H55.6c-1.1,0-2-0.9-2-2V19.9c0-2.3-1.9-4.2-4.2-4.2H4.2c-2.3,0-4.2,1.9-4.2,4.2v103.2c0,2.3,1.9,4.2,4.2,4.2
			h125.6c2.3,0,4.2-1.9,4.2-4.2V41.9C134.1,39.5,132.2,37.7,129.8,37.7z M96.8,96.6c-5.8,5.8-13.4,8.7-21,8.7
			c-6.2,0-12.4-1.9-17.6-5.7l-17.3,17.3c-0.9,0.9-2,1.3-3.2,1.3s-2.3-0.4-3.2-1.3c-1.8-1.8-1.8-4.6,0-6.4l17.3-17.3
			c-3.7-5.1-5.7-11.2-5.7-17.6c0-7.9,3.1-15.4,8.7-21c11.6-11.6,30.4-11.6,42,0c5.6,5.6,8.7,13.1,8.7,21
			C105.5,83.5,102.4,91,96.8,96.6z"/>
	</g>
</g>
</svg>
