<svg id="Camada_1" data-name="Camada 1" xmlns="http://www.w3.org/2000/svg" viewBox="0 0 110.32 143.79"><title>Ícones</title><path d="M106.91,67.85a8.12,8.12,0,0,0-7.39-2.54c-5.84.9-12.3,7.33-18.92,18.75V18.31a11.94,11.94,0,0,0-19.31-9.4,11.93,11.93,0,0,0-23.08,0,11.94,11.94,0,0,0-19.31,9.4v6.8A11.93,11.93,0,0,0,0,34.81v52.7c0,20.63,13.06,53.33,13.62,54.72a2.5,2.5,0,0,0,4.64-1.87C18.13,140,5,107.17,5,87.51V34.81a6.95,6.95,0,0,1,13.9,0V70.2a2.5,2.5,0,0,0,5,0V18.31a7,7,0,1,1,13.9,0V66.36a2.5,2.5,0,0,0,5,0V12a7,7,0,0,1,13.9,0V72.71a2.5,2.5,0,0,0,5,0V18.31a6.95,6.95,0,1,1,13.9,0V94.13a2.5,2.5,0,0,0,4.75,1.09c10.65-22,18-24.66,19.93-25a3.21,3.21,0,0,1,3,1c3.87,4.09,2.28,12.38-5.87,30.6-8,17.8-23.39,32.39-23.55,32.54a2.49,2.49,0,0,0-.11,3.53,2.46,2.46,0,0,0,1.82.79,2.5,2.5,0,0,0,1.71-.67c.66-.62,16.3-15.4,24.69-34.15C110.12,85.75,113.32,74.61,106.91,67.85Z"/><path d="M60.24,90.1c-19.5,16.77-17.82,46.24-17.74,47.48a2,2,0,0,0,2,1.87h.13a2,2,0,0,0,1.87-2.13c0-.28-1.62-28.73,16.34-44.19a2,2,0,1,0-2.6-3Z"/><path d="M58.17,80.68a2,2,0,0,0-1.32-2.5c-13.63-4.21-40.37,4-41.5,4.32a2,2,0,0,0,.59,3.91,2.06,2.06,0,0,0,.59-.09c.27-.08,26.68-8.17,39.14-4.32A2,2,0,0,0,58.17,80.68Z"/></svg>