<svg id="Camada_1" data-name="Camada 1" xmlns="http://www.w3.org/2000/svg" viewBox="0 0 145 144.26"><title>Ícones</title><path d="M54.83,113.56a10.64,10.64,0,0,1-6.2,1.62,13.3,13.3,0,0,1-6.24-1.49,22.64,22.64,0,0,1-5.25-3.8l-5.62,7.68A20.79,20.79,0,0,0,38.88,123a26.3,26.3,0,0,0,10.91,2,26.79,26.79,0,0,0,7.52-1,19.61,19.61,0,0,0,6.2-3,14.54,14.54,0,0,0,4.21-4.79,13.18,13.18,0,0,0,1.57-6.49,11.83,11.83,0,0,0-2.93-8.31,16,16,0,0,0-7.48-4.5v-.33a16.41,16.41,0,0,0,6.49-4.67,10.88,10.88,0,0,0,2.27-7,13.51,13.51,0,0,0-1.32-6.12,13.23,13.23,0,0,0-3.68-4.5,16.19,16.19,0,0,0-5.7-2.82,27.24,27.24,0,0,0-7.4-.95,21.78,21.78,0,0,0-8.89,1.78A31,31,0,0,0,33,77.24l6.11,7.44a27.91,27.91,0,0,1,4.76-3.39A10.38,10.38,0,0,1,49,80.05a6.81,6.81,0,0,1,4.79,1.53,5.53,5.53,0,0,1,1.66,4.26,6.54,6.54,0,0,1-.62,2.85,5.81,5.81,0,0,1-2.07,2.23,11.1,11.1,0,0,1-3.8,1.44,28.67,28.67,0,0,1-5.91.5v8.6a38.22,38.22,0,0,1,7,.53,13.56,13.56,0,0,1,4.3,1.49,5.2,5.2,0,0,1,2.19,2.36,7.56,7.56,0,0,1,.62,3.14A5.25,5.25,0,0,1,54.83,113.56Z"/><path d="M112.52,114.18h-9.84V71.53H93.76A39.14,39.14,0,0,1,88,74.35a42.49,42.49,0,0,1-7.27,2v7.52h9.83v30.33H79.13V124h33.39Z"/><path d="M137.9,15.69H115.79V8.74a8.74,8.74,0,0,0-17.48,0v7H46.69V8.74a8.74,8.74,0,1,0-17.48,0v7H7.1A7.11,7.11,0,0,0,0,22.79V137.16a7.11,7.11,0,0,0,7.1,7.1H137.9a7.11,7.11,0,0,0,7.1-7.1V22.79A7.11,7.11,0,0,0,137.9,15.69ZM103.31,8.74a3.74,3.74,0,0,1,7.48,0V22.18a3.74,3.74,0,0,1-7.48,0Zm-69.1,0a3.74,3.74,0,1,1,7.48,0V22.18a3.74,3.74,0,1,1-7.48,0ZM140,137.16a2.1,2.1,0,0,1-2.1,2.1H7.1a2.1,2.1,0,0,1-2.1-2.1V56.72H140Z"/></svg>